<mxfile host="app.diagrams.net" modified="2021-10-13T12:39:02.892Z" agent="5.0 (Windows NT 10.0; Win64; x64) AppleWebKit/537.36 (KHTML, like Gecko) Chrome/94.0.4606.71 Safari/537.36" etag="8G5rJIOQRPWzjTWTqeIK" version="15.5.2" type="github">
  <diagram id="YXy8ZBE6YYZRTaoPI3S7" name="Page-2">
    <mxGraphModel dx="1447" dy="750" grid="1" gridSize="10" guides="1" tooltips="1" connect="1" arrows="1" fold="1" page="1" pageScale="1" pageWidth="827" pageHeight="1169" math="0" shadow="0">
      <root>
        <mxCell id="hYIxPzwmykqc68ZDZAoe-0" />
        <mxCell id="hYIxPzwmykqc68ZDZAoe-1" parent="hYIxPzwmykqc68ZDZAoe-0" />
        <mxCell id="qegeBtKflIuXYuOrshfi-50" style="edgeStyle=orthogonalEdgeStyle;orthogonalLoop=1;jettySize=auto;html=1;entryX=1;entryY=0.5;entryDx=0;entryDy=0;entryPerimeter=0;fontStyle=0;spacing=2;strokeWidth=4;strokeColor=#666666;rounded=1;" edge="1" parent="hYIxPzwmykqc68ZDZAoe-1" source="qegeBtKflIuXYuOrshfi-36" target="qegeBtKflIuXYuOrshfi-37">
          <mxGeometry relative="1" as="geometry" />
        </mxCell>
        <mxCell id="qegeBtKflIuXYuOrshfi-51" style="edgeStyle=orthogonalEdgeStyle;orthogonalLoop=1;jettySize=auto;html=1;exitX=0.5;exitY=1;exitDx=0;exitDy=0;exitPerimeter=0;entryX=1;entryY=0.5;entryDx=0;entryDy=0;entryPerimeter=0;fontStyle=0;spacing=2;strokeWidth=4;strokeColor=#666666;rounded=1;" edge="1" parent="hYIxPzwmykqc68ZDZAoe-1" source="qegeBtKflIuXYuOrshfi-36" target="qegeBtKflIuXYuOrshfi-39">
          <mxGeometry relative="1" as="geometry">
            <Array as="points">
              <mxPoint x="390" y="486" />
            </Array>
          </mxGeometry>
        </mxCell>
        <mxCell id="qegeBtKflIuXYuOrshfi-54" style="edgeStyle=orthogonalEdgeStyle;orthogonalLoop=1;jettySize=auto;html=1;exitX=0.5;exitY=1;exitDx=0;exitDy=0;exitPerimeter=0;entryX=1;entryY=0.5;entryDx=0;entryDy=0;entryPerimeter=0;fontStyle=0;spacing=2;strokeWidth=4;strokeColor=#666666;rounded=1;" edge="1" parent="hYIxPzwmykqc68ZDZAoe-1" source="qegeBtKflIuXYuOrshfi-36" target="qegeBtKflIuXYuOrshfi-40">
          <mxGeometry relative="1" as="geometry">
            <mxPoint x="389.66666666666674" y="560" as="targetPoint" />
          </mxGeometry>
        </mxCell>
        <mxCell id="qegeBtKflIuXYuOrshfi-55" style="edgeStyle=orthogonalEdgeStyle;orthogonalLoop=1;jettySize=auto;html=1;exitX=0.5;exitY=1;exitDx=0;exitDy=0;exitPerimeter=0;verticalAlign=bottom;entryX=1;entryY=0.5;entryDx=0;entryDy=0;entryPerimeter=0;fontStyle=0;spacing=2;strokeWidth=4;strokeColor=#666666;rounded=1;" edge="1" parent="hYIxPzwmykqc68ZDZAoe-1" source="qegeBtKflIuXYuOrshfi-36" target="qegeBtKflIuXYuOrshfi-41">
          <mxGeometry relative="1" as="geometry">
            <mxPoint x="389.66666666666674" y="640" as="targetPoint" />
          </mxGeometry>
        </mxCell>
        <mxCell id="qegeBtKflIuXYuOrshfi-56" style="edgeStyle=orthogonalEdgeStyle;orthogonalLoop=1;jettySize=auto;html=1;exitX=0.5;exitY=1;exitDx=0;exitDy=0;exitPerimeter=0;verticalAlign=bottom;entryX=1;entryY=0.5;entryDx=0;entryDy=0;entryPerimeter=0;fontStyle=0;spacing=2;strokeWidth=4;strokeColor=#666666;rounded=1;" edge="1" parent="hYIxPzwmykqc68ZDZAoe-1" source="qegeBtKflIuXYuOrshfi-36" target="qegeBtKflIuXYuOrshfi-42">
          <mxGeometry relative="1" as="geometry">
            <mxPoint x="389.66666666666674" y="720" as="targetPoint" />
          </mxGeometry>
        </mxCell>
        <mxCell id="qegeBtKflIuXYuOrshfi-57" style="edgeStyle=orthogonalEdgeStyle;orthogonalLoop=1;jettySize=auto;html=1;exitX=0.5;exitY=1;exitDx=0;exitDy=0;exitPerimeter=0;verticalAlign=bottom;entryX=1;entryY=0.5;entryDx=0;entryDy=0;entryPerimeter=0;fontStyle=0;spacing=2;strokeWidth=4;strokeColor=#666666;rounded=1;" edge="1" parent="hYIxPzwmykqc68ZDZAoe-1" source="qegeBtKflIuXYuOrshfi-36" target="qegeBtKflIuXYuOrshfi-43">
          <mxGeometry relative="1" as="geometry">
            <mxPoint x="389.66666666666674" y="780" as="targetPoint" />
          </mxGeometry>
        </mxCell>
        <mxCell id="qegeBtKflIuXYuOrshfi-58" style="edgeStyle=orthogonalEdgeStyle;orthogonalLoop=1;jettySize=auto;html=1;exitX=0.5;exitY=1;exitDx=0;exitDy=0;exitPerimeter=0;verticalAlign=bottom;entryX=1;entryY=0.5;entryDx=0;entryDy=0;entryPerimeter=0;fontStyle=0;spacing=2;strokeWidth=4;strokeColor=#666666;rounded=1;" edge="1" parent="hYIxPzwmykqc68ZDZAoe-1" source="qegeBtKflIuXYuOrshfi-36" target="qegeBtKflIuXYuOrshfi-44">
          <mxGeometry relative="1" as="geometry">
            <mxPoint x="389.66666666666674" y="840" as="targetPoint" />
          </mxGeometry>
        </mxCell>
        <mxCell id="qegeBtKflIuXYuOrshfi-36" value="" style="shape=mxgraph.cisco.switches.layer_3_switch;sketch=0;html=1;pointerEvents=1;dashed=0;fillColor=#036897;strokeColor=#ffffff;strokeWidth=2;verticalLabelPosition=bottom;verticalAlign=top;align=center;outlineConnect=0;" vertex="1" parent="hYIxPzwmykqc68ZDZAoe-1">
          <mxGeometry x="340" y="279.45" width="100" height="94.55" as="geometry" />
        </mxCell>
        <mxCell id="qegeBtKflIuXYuOrshfi-37" value="" style="shape=mxgraph.cisco.routers.router;sketch=0;html=1;pointerEvents=1;dashed=0;fillColor=#036897;strokeColor=#ffffff;strokeWidth=2;verticalLabelPosition=bottom;verticalAlign=top;align=center;outlineConnect=0;" vertex="1" parent="hYIxPzwmykqc68ZDZAoe-1">
          <mxGeometry x="247.28" y="382" width="92.72" height="63" as="geometry" />
        </mxCell>
        <mxCell id="qegeBtKflIuXYuOrshfi-39" value="" style="shape=mxgraph.cisco.routers.router;sketch=0;html=1;pointerEvents=1;dashed=0;fillColor=#036897;strokeColor=#ffffff;strokeWidth=2;verticalLabelPosition=bottom;verticalAlign=top;align=center;outlineConnect=0;" vertex="1" parent="hYIxPzwmykqc68ZDZAoe-1">
          <mxGeometry x="246.27999999999997" y="454" width="92.72" height="63" as="geometry" />
        </mxCell>
        <mxCell id="qegeBtKflIuXYuOrshfi-40" value="" style="shape=mxgraph.cisco.routers.router;sketch=0;html=1;pointerEvents=1;dashed=0;fillColor=#036897;strokeColor=#ffffff;strokeWidth=2;verticalLabelPosition=bottom;verticalAlign=top;align=center;outlineConnect=0;" vertex="1" parent="hYIxPzwmykqc68ZDZAoe-1">
          <mxGeometry x="246.27999999999997" y="532" width="92.72" height="63" as="geometry" />
        </mxCell>
        <mxCell id="qegeBtKflIuXYuOrshfi-41" value="" style="shape=mxgraph.cisco.routers.router;sketch=0;html=1;pointerEvents=1;dashed=0;fillColor=#036897;strokeColor=#ffffff;strokeWidth=2;verticalLabelPosition=bottom;verticalAlign=top;align=center;outlineConnect=0;" vertex="1" parent="hYIxPzwmykqc68ZDZAoe-1">
          <mxGeometry x="246.27999999999997" y="606" width="92.72" height="63" as="geometry" />
        </mxCell>
        <mxCell id="qegeBtKflIuXYuOrshfi-42" value="" style="shape=mxgraph.cisco.routers.router;sketch=0;html=1;pointerEvents=1;dashed=0;fillColor=#036897;strokeColor=#ffffff;strokeWidth=2;verticalLabelPosition=bottom;verticalAlign=top;align=center;outlineConnect=0;" vertex="1" parent="hYIxPzwmykqc68ZDZAoe-1">
          <mxGeometry x="247.27999999999997" y="679" width="92.72" height="63" as="geometry" />
        </mxCell>
        <mxCell id="qegeBtKflIuXYuOrshfi-43" value="" style="shape=mxgraph.cisco.routers.router;sketch=0;html=1;pointerEvents=1;dashed=0;fillColor=#036897;strokeColor=#ffffff;strokeWidth=2;verticalLabelPosition=bottom;verticalAlign=top;align=center;outlineConnect=0;" vertex="1" parent="hYIxPzwmykqc68ZDZAoe-1">
          <mxGeometry x="246.27999999999997" y="750" width="92.72" height="63" as="geometry" />
        </mxCell>
        <mxCell id="qegeBtKflIuXYuOrshfi-44" value="" style="shape=mxgraph.cisco.routers.router;sketch=0;html=1;pointerEvents=1;dashed=0;fillColor=#036897;strokeColor=#ffffff;strokeWidth=2;verticalLabelPosition=bottom;verticalAlign=top;align=center;outlineConnect=0;" vertex="1" parent="hYIxPzwmykqc68ZDZAoe-1">
          <mxGeometry x="246.27999999999997" y="820" width="92.72" height="63" as="geometry" />
        </mxCell>
      </root>
    </mxGraphModel>
  </diagram>
</mxfile>
